Coordinates
version=1
nRows=17
nColumns=24
inDegrees=yes

Units are S.I. units (second, meters, Newtons, ...)
Angles are in degrees.

endheader
time	pelvis_tilt	pelvis_list	pelvis_rotation	pelvis_tx	pelvis_ty	pelvis_tz	hip_flexion_r	hip_adduction_r	hip_rotation_r	knee_angle_r	ankle_angle_r	subtalar_angle_r	mtp_angle_r	hip_flexion_l	hip_adduction_l	hip_rotation_l	knee_angle_l	ankle_angle_l	subtalar_angle_l	mtp_angle_l	lumbar_extension	lumbar_bending	lumbar_rotation
      0.91233333	     -2.84559171	     -3.54178177	     -2.45802916	     -0.17508010	      0.97910492	      0.30758096	     -8.18861415	      7.51792613	     -2.21007712	    -10.84144027	     12.88695902	     -1.65866756	      1.05644627	     27.27648104	     -2.20180042	     -3.01787106	     -8.96750822	     -1.94858451	     -4.19608192	     -2.17822484	     -1.78902446	      6.94051169	      9.29893187
      0.91650000	     -2.91523191	     -3.48095022	     -2.46967944	     -0.16925313	      0.97853804	      0.30726005	     -8.10771818	      7.41151503	     -2.16652058	    -11.56155498	     13.00497603	     -1.75597047	      1.07516218	     27.17882023	     -2.05633951	     -2.93934377	     -8.94432346	     -2.19872442	     -4.27439953	     -2.06169192	     -1.66302355	      6.86993751	      9.32107617
      0.92066667	     -2.98609233	     -3.40489960	     -2.47645939	     -0.16341090	      0.97802400	      0.30693049	     -7.99340427	      7.28764762	     -2.12837348	    -12.34056057	     13.08975665	     -1.85998509	      1.09894244	     27.07904815	     -1.89363165	     -2.84036527	     -8.97487880	     -2.47611476	     -4.40036474	     -1.94598131	     -1.53409310	      6.77963793	      9.33631500
      0.92483333	     -3.08263683	     -3.32288749	     -2.48067640	     -0.15756006	      0.97752533	      0.30658823	     -7.81529606	      7.15778419	     -2.08713472	    -13.18707990	     13.15762151	     -1.97321894	      1.13184269	     27.00352154	     -1.72271483	     -2.70569559	     -9.05373534	     -2.77916901	     -4.58873273	     -1.81758445	     -1.37091259	      6.68602460	      9.34575792
      0.92900000	     -3.20041556	     -3.25140593	     -2.49533658	     -0.15171848	      0.97706218	      0.30622537	     -7.57116735	      7.03432564	     -2.03708177	    -14.11365335	     13.21828803	     -2.04003029	      1.20388685	     26.92470955	     -1.55898287	     -2.48115142	     -9.12741380	     -3.12091619	     -4.93320507	     -1.58690819	     -1.17365142	      6.62880703	      9.36639116
      0.93316667	     -3.30864022	     -3.15764149	     -2.49035720	     -0.14586727	      0.97664688	      0.30584946	     -7.30590449	      6.88821247	     -2.01053553	    -15.09202116	     13.20927753	     -2.14718690	      1.29882796	     26.85867456	     -1.37173424	     -2.29616187	     -9.28499756	     -3.46707394	     -5.22514159	     -1.33300555	     -1.00160809	      6.52675619	      9.35608164
      0.93733333	     -3.39496992	     -3.03974356	     -2.48104673	     -0.13997804	      0.97633723	      0.30547425	     -7.03520403	      6.71465586	     -1.98918098	    -16.11823539	     13.15389470	     -2.25900739	      1.41500996	     26.75527101	     -1.16095303	     -2.11072017	     -9.45446843	     -3.82682528	     -5.53991656	     -1.07937168	     -0.84303614	      6.39132629	      9.33591322
      0.94150000	     -3.45869810	     -2.90692959	     -2.43595902	     -0.13407529	      0.97606595	      0.30500870	     -6.73949088	      6.50699938	     -2.10368473	    -17.22447219	     13.03574607	     -2.21845401	      3.50708118	     26.64600604	     -0.92018488	     -1.92141557	     -9.67945399	     -4.21305532	     -5.91178435	      2.63192888	     -0.71686024	      6.23243779	      9.28504598
      0.94566667	     -3.57665012	     -2.79038310	     -2.43768075	     -0.12819154	      0.97582481	      0.30465645	     -6.36731005	      6.34020735	     -2.01552604	    -18.35754280	     12.81201042	     -2.47292238	      3.55730792	     26.58029881	     -0.72354015	     -1.75272536	     -9.91092069	     -4.56886504	     -6.24282564	      2.64869423	     -0.51877022	      6.09811988	      9.25612828
      0.94983333	     -3.68317698	     -2.65781787	     -2.41126404	     -0.12232498	      0.97562581	      0.30423991	     -5.95290814	      6.14567814	     -2.01924211	    -19.58237918	     12.59044746	     -2.61477789	      3.64457031	     26.51211488	     -0.49700489	     -1.55018715	    -10.17624802	     -4.88504337	     -6.61127584	      2.67772976	     -0.34107626	      5.94288125	      9.20695948
      0.95400000	     -3.79101093	     -2.51333033	     -2.37977013	     -0.11646486	      0.97546744	      0.30378806	     -5.48977429	      5.92841985	     -2.06015222	    -20.88117004	     12.30293088	     -2.70026216	      3.78786005	     26.44913764	     -0.25655519	     -1.34211280	    -10.46627765	     -5.19129665	     -7.03486949	      2.72000637	     -0.15951191	      5.78213145	      9.14705903
      0.95816667	     -3.88509275	     -2.34851052	     -2.33768064	     -0.11060264	      0.97536641	      0.30331675	     -4.99985491	      5.68319172	     -2.12328899	    -22.24192435	     11.93482063	     -2.76219865	      3.97189383	     26.36971530	      0.00616045	     -1.13990957	    -10.76379156	     -5.46022721	     -7.43129607	      2.76679962	      0.00463932	      5.59284519	      9.07079589
      0.96233333	     -3.97723495	     -2.18392116	     -2.28472055	     -0.10478488	      0.97529128	      0.30282079	     -4.46469262	      5.43129094	     -2.21620525	    -23.66947108	     11.49819637	     -2.78684076	      4.26420348	     26.31079369	      0.27159597	     -0.94489326	    -11.11396867	     -5.68846310	     -7.88109808	      2.82754529	      0.15331669	      5.39524287	      8.98626707
      0.96650000	     -4.05191351	     -1.98346303	     -2.23799673	     -0.09892372	      0.97531168	      0.30232711	     -3.90851916	      5.12972256	     -2.32391882	    -25.15404860	     10.94389849	     -2.83982245	      4.53034640	     26.19632885	      0.56599360	     -0.76490512	    -11.40437527	     -5.86414066	     -8.21009083	      2.87248893	      0.30984134	      5.16520719	      8.89322645
      0.97066667	     -4.14608791	     -1.79222070	     -2.17232980	     -0.09315748	      0.97529521	      0.30179377	     -3.27914464	      4.83197596	     -2.45642571	    -26.70950708	     10.34088905	     -2.81250308	      4.95734180	     26.15417471	      0.85941174	     -0.58214187	    -11.79783936	     -6.00228193	     -8.67177202	      2.92642128	      0.44957720	      4.93751877	      8.78708454
      0.97483333	     -4.16460329	     -1.54879704	     -2.10320066	     -0.08732260	      0.97543603	      0.30123527	     -2.70391560	      4.45118591	     -2.64521888	    -28.28141955	      9.47960539	     -2.88409314	     11.82976282	     25.98768170	      1.20431866	     -0.42451733	    -12.11736766	     -6.04838753	     -8.98908480	      3.53645266	      0.52074575	      4.65011163	      8.67200913
      0.97900000	     -4.22825702	     -1.31996144	     -2.03766256	     -0.08154220	      0.97555489	      0.30069415	     -2.03493615	      4.09525816	     -2.78837837	    -29.92426214	      8.63795404	     -2.94074639	     11.87361442	     25.87957941	      1.52792768	     -0.27597424	    -12.46114902	     -6.05608190	     -9.27235691	      3.52873593	      0.65103178	      4.38810456	      8.56351384
